<svg id="eye_Layer_1" viewBox="0 0 22 18" fill="currentColor" width="39.111111" height="32" version="1.1" xmlns="http://www.w3.org/2000/svg" xmlns:xlink="http://www.w3.org/1999/xlink">
    <title>eye</title>
    <style>
        :root, .palette0 {color: currentColor;
            --color0: #414246;
            --color1: #292d32;
        }
    </style>
    <!-- Generator: Adobe Illustrator 29.5.0, SVG Export Plug-In . SVG Version: 2.1.0 Build 137) -->
    <path d="M10.75 17.5c-4.52 0-7.56-2.72-9.32-5C0.57 11.38 0 10.64 0 8.75S0.54 6.16 1.43 5c0.54-0.71 1.16-1.38 1.82-1.98 0.3-0.28 0.78-0.26 1.06 0.05s0.26 0.78-0.05 1.06c-0.6 0.54-1.15 1.15-1.64 1.79C1.8 6.98 1.5 7.38 1.5 8.76s0.3 1.78 1.12 2.84c1.55 2.01 4.22 4.41 8.13 4.41s6.58-2.4 8.13-4.41C19.7 10.54 20 10.15 20 8.76s-0.3-1.78-1.12-2.84c-1.55-2.02-4.22-4.41-8.13-4.41-0.97 0-1.88 0.14-2.77 0.42-0.4 0.12-0.82-0.09-0.94-0.49-0.13-0.4 0.09-0.82 0.49-0.94 1.05-0.33 2.18-0.51 3.23-0.5 4.52 0 7.56 2.72 9.32 5 0.89 1.16 1.43 1.86 1.43 3.75s-0.54 2.59-1.43 3.75c-1.75 2.28-4.79 5-9.33 5zM10.75 12.5c-1 0-1.94-0.39-2.65-1.1S7 9.75 7 8.75 7.39 6.81 8.1 6.1c1.42-1.42 3.89-1.42 5.3 0 0.71 0.71 1.1 1.65 1.1 2.65s-0.39 1.94-1.1 2.65-1.65 1.1-2.65 1.1zM10.75 6.5c-0.6 0-1.17 0.23-1.59 0.66C8.73 7.58 8.5 8.15 8.5 8.75s0.23 1.17 0.66 1.59c0.84 0.84 2.34 0.84 3.18 0C12.76 9.91 13 9.35 13 8.75s-0.24-1.17-0.66-1.59c-0.42-0.43-0.99-0.66-1.59-0.66z" />
</svg>