<svg viewBox="0 0 36 36" fill="none" width="32" height="32" xmlns="http://www.w3.org/2000/svg" xmlns:xlink="http://www.w3.org/1999/xlink">
    <title>wallet</title>
    <style>
        :root, .palette0 {color: currentColor;
            --color0: #414246;
            --color1: #292d32;
        }
    </style>
    <path fill="var(--color0, #414246)" d="M15.4729 23.4813c0-0.6746-0.5469-1.2215-1.2215-1.2215-0.6747 0-1.2216 0.5469-1.2216 1.2215zM16.2873 27.2812c0 0.6746 0.5469 1.2215 1.2215 1.2215s1.2215-0.5469 1.2215-1.2215zM18.7303 14.2514c0-0.6747-0.5469-1.2216-1.2215-1.2216s-1.2215 0.5469-1.2215 1.2216zM19.5447 18.0512c0 0.6746 0.5469 1.2215 1.2216 1.2215 0.6746 0 1.2215-0.5469 1.2215-1.2215zM1.2216 20.7663h1.2215c0-3.1055 26e-4-5.312 0.2277-6.9856 0.2204-1.6387 0.6337-2.5826 1.323-3.2712L3.1304 9.6453 2.267 8.7811c-1.2195 1.2186-1.7607 2.7643-2.0175 4.6738C-26e-4 15.3294 0 17.7298 0 20.7663zM3.1304 9.6453l0.8634 0.8642c0.6899-0.6893 1.6343-1.1026 3.2726-1.3232 1.6735-0.2254 3.8796-0.2283 6.985-0.2283V7.7365 6.5149c-3.0366 0-5.4366-21e-4-7.3109 0.2502-1.9094 0.257-3.4545 0.798-4.6735 2.016zM14.2514 7.7365V8.958l6.5149 0V7.7365 6.5149l-6.5149 0zM20.7663 7.7365V8.958c3.1054 0 5.3119 26e-4 6.9856 0.2277 1.6386 0.2204 2.5825 0.6337 3.2711 1.323l0.8642-0.8634 0.8642-0.8634c-1.2186-1.2196-2.7643-1.7606-4.6738-2.0175-1.8745-0.2521-4.2749-0.2495-7.3113-0.2495zM31.8872 9.6453 31.023 10.5087c0.6893 0.6899 1.1026 1.6343 1.3232 3.2726 0.2254 1.6735 0.2283 3.8796 0.2283 6.985h1.2216 1.2215c0-3.0366 21e-4-5.4366-0.2502-7.3109-0.257-1.9094-0.798-3.4545-2.016-4.6735zM33.7961 20.7663h-1.2216c0 3.1054-26e-4 5.3119-0.2277 6.9856-0.2203 1.6386-0.6337 2.5825-1.323 3.2711l0.8634 0.8642 0.8634 0.8642c1.2196-1.2186 1.7606-2.7643 2.0175-4.6738 0.2521-1.8745 0.2495-4.2749 0.2495-7.3113zM31.8872 31.8872 31.0238 31.023c-0.6899 0.6893-1.6343 1.1026-3.2726 1.3232-1.6735 0.2254-3.8796 0.2283-6.9849 0.2283v1.2216 1.2215c3.0365 0 5.4365 21e-4 7.3108-0.2502 1.9094-0.257 3.4545-0.798 4.6735-2.016zM20.7663 33.7961v-1.2216h-6.5149v1.2216 1.2215h6.5149zM14.2514 33.7961v-1.2216c-3.1055 0-5.312-26e-4-6.9856-0.2277-1.6387-0.2203-2.5826-0.6337-3.2712-1.323l-0.8642 0.8634-0.8641 0.8634c1.2185 1.2196 2.7642 1.7606 4.6737 2.0175 1.8745 0.2521 4.2749 0.2495 7.3114 0.2495zM3.1304 31.8872l0.8641-0.8634c-0.6892-0.6899-1.1026-1.6343-1.3231-3.2726-0.2253-1.6735-0.2283-3.8796-0.2283-6.9849H1.2216 0c0 3.0365-22e-4 5.4365 0.2501 7.3108 0.2571 1.9094 0.7982 3.4545 2.0162 4.6735zM24.0237 7.7365l1.2215-1e-4c0-1.5013 27e-4-2.7499-0.1301-3.737-0.1376-1.0226-0.4402-1.9454-1.1821-2.6872L23.0693 2.176 22.2056 3.0397c0.2125 0.2126 0.3871 0.5343 0.4881 1.2854 0.1059 0.7865 0.1085 1.8409 0.1085 3.4113zM23.0693 2.176 23.933 1.3122c-0.7417-0.7418-1.6646-1.0444-2.6871-1.182C20.2587-26e-4 19.0102 0 17.5088 0v1.2216 1.2215c1.5704 0 2.6249 26e-4 3.4114 0.1084 0.7511 0.101 1.0726 0.2756 1.2854 0.4882zM17.5088 1.2216V0c-1.5014 0-2.7499-26e-4-3.7371 0.1302-1.0225 0.1376-1.9454 0.4402-2.6871 1.182l0.8637 0.8638 0.8637 0.8637c0.2128-0.2126 0.5343-0.3872 1.2854-0.4882 0.7865-0.1058 1.841-0.1084 3.4114-0.1084zM11.9483 2.176 11.0846 1.3122c-0.7419 0.7419-1.0445 1.6646-1.1821 2.6872-0.1327 0.9871-0.1301 2.2357-0.1301 3.737l1.2215 0 1.2215 0c0-1.5704 26e-4-2.6248 0.1085-3.4113 0.101-0.7511 0.2756-1.0728 0.4881-1.2854zM17.5088 26.1948v1.2215c2.2561 0 4.479-1.5626 4.479-3.935h-1.2215-1.2216c0 0.6245-0.6925 1.492-2.0359 1.492zM20.7663 23.4813h1.2215c0-2.3715-2.2219-3.9366-4.479-3.9366v1.2216 1.2215c1.3424 0 2.0359 0.8683 2.0359 1.4935zM17.5088 20.7663v-1.2216c-1.3429 0-2.0359-0.867-2.0359-1.4935h-1.2215-1.2216c0 2.3735 2.2224 3.9366 4.479 3.9366zM14.2514 18.0512h1.2215c0-0.6245 0.6925-1.4919 2.0359-1.4919v-1.2216-1.2215c-2.2561 0-4.479 1.5626-4.479 3.935zM17.5088 26.1948v-1.2215c-1.3434 0-2.0359-0.8675-2.0359-1.492h-1.2215-1.2216c0 2.3724 2.2229 3.935 4.479 3.935zM17.5088 26.1948h-1.2215v1.0864h1.2215 1.2215v-1.0864zM17.5088 14.2514h-1.2215v1.0863h1.2215 1.2215v-1.0863zM17.5088 15.3377v1.2216c1.3434 0 2.0359 0.8674 2.0359 1.4919h1.2216 1.2215c0-2.3724-2.2229-3.935-4.479-3.935z" />
</svg>